<mxfile host="Electron" agent="Mozilla/5.0 (Windows NT 10.0; Win64; x64) AppleWebKit/537.36 (KHTML, like Gecko) draw.io/25.0.2 Chrome/128.0.6613.186 Electron/32.2.5 Safari/537.36" version="25.0.2">
  <diagram name="Страница — 1" id="hPPcrUByunXkYxeMK2Q-">
    <mxGraphModel dx="2887" dy="-207" grid="0" gridSize="10" guides="1" tooltips="1" connect="1" arrows="1" fold="1" page="0" pageScale="1" pageWidth="827" pageHeight="1169" math="0" shadow="0">
      <root>
        <mxCell id="0" />
        <mxCell id="1" parent="0" />
        <mxCell id="0cH8uHmRiBu6Dw8lMMFm-35" style="edgeStyle=orthogonalEdgeStyle;rounded=0;orthogonalLoop=1;jettySize=auto;html=1;entryX=1;entryY=0.5;entryDx=0;entryDy=0;entryPerimeter=0;" parent="1" target="0cH8uHmRiBu6Dw8lMMFm-36" edge="1">
          <mxGeometry relative="1" as="geometry">
            <mxPoint x="995.9634806315103" y="2627.472625732422" as="targetPoint" />
            <Array as="points">
              <mxPoint x="972" y="1877" />
              <mxPoint x="972" y="2747" />
            </Array>
            <mxPoint x="688.9999999999991" y="1877" as="sourcePoint" />
          </mxGeometry>
        </mxCell>
        <mxCell id="qzgSz0VJFYSZ9HDAb8HW-5" value="" style="edgeStyle=orthogonalEdgeStyle;rounded=0;orthogonalLoop=1;jettySize=auto;html=1;" edge="1" parent="1" source="qzgSz0VJFYSZ9HDAb8HW-2" target="qzgSz0VJFYSZ9HDAb8HW-4">
          <mxGeometry relative="1" as="geometry" />
        </mxCell>
        <mxCell id="qzgSz0VJFYSZ9HDAb8HW-2" value="Начало" style="strokeWidth=1;html=1;shape=mxgraph.flowchart.terminator;whiteSpace=wrap;" vertex="1" parent="1">
          <mxGeometry x="891.37" y="1438" width="245.5" height="60" as="geometry" />
        </mxCell>
        <mxCell id="qzgSz0VJFYSZ9HDAb8HW-9" value="" style="edgeStyle=orthogonalEdgeStyle;rounded=0;orthogonalLoop=1;jettySize=auto;html=1;" edge="1" parent="1" source="qzgSz0VJFYSZ9HDAb8HW-4" target="qzgSz0VJFYSZ9HDAb8HW-6">
          <mxGeometry relative="1" as="geometry" />
        </mxCell>
        <mxCell id="qzgSz0VJFYSZ9HDAb8HW-4" value="&amp;nbsp; double bottom_limit = double_input();" style="shape=process;whiteSpace=wrap;html=1;backgroundOutline=1;" vertex="1" parent="1">
          <mxGeometry x="886.5" y="1556" width="255.25" height="60" as="geometry" />
        </mxCell>
        <mxCell id="qzgSz0VJFYSZ9HDAb8HW-10" value="" style="edgeStyle=orthogonalEdgeStyle;rounded=0;orthogonalLoop=1;jettySize=auto;html=1;" edge="1" parent="1" source="qzgSz0VJFYSZ9HDAb8HW-6" target="qzgSz0VJFYSZ9HDAb8HW-7">
          <mxGeometry relative="1" as="geometry" />
        </mxCell>
        <mxCell id="qzgSz0VJFYSZ9HDAb8HW-6" value="double top_limit = double_input();" style="shape=process;whiteSpace=wrap;html=1;backgroundOutline=1;" vertex="1" parent="1">
          <mxGeometry x="886.5" y="1656" width="255.25" height="60" as="geometry" />
        </mxCell>
        <mxCell id="qzgSz0VJFYSZ9HDAb8HW-11" value="" style="edgeStyle=orthogonalEdgeStyle;rounded=0;orthogonalLoop=1;jettySize=auto;html=1;" edge="1" parent="1" source="qzgSz0VJFYSZ9HDAb8HW-7" target="qzgSz0VJFYSZ9HDAb8HW-8">
          <mxGeometry relative="1" as="geometry" />
        </mxCell>
        <mxCell id="qzgSz0VJFYSZ9HDAb8HW-7" value="const double delta = get_positive_double();" style="shape=process;whiteSpace=wrap;html=1;backgroundOutline=1;" vertex="1" parent="1">
          <mxGeometry x="886.5" y="1754" width="255.25" height="60" as="geometry" />
        </mxCell>
        <mxCell id="qzgSz0VJFYSZ9HDAb8HW-13" value="" style="edgeStyle=orthogonalEdgeStyle;rounded=0;orthogonalLoop=1;jettySize=auto;html=1;" edge="1" parent="1" source="qzgSz0VJFYSZ9HDAb8HW-8" target="qzgSz0VJFYSZ9HDAb8HW-12">
          <mxGeometry relative="1" as="geometry" />
        </mxCell>
        <mxCell id="qzgSz0VJFYSZ9HDAb8HW-8" value="print_table(bottom_limit, top_limit, delta);" style="shape=process;whiteSpace=wrap;html=1;backgroundOutline=1;" vertex="1" parent="1">
          <mxGeometry x="886.5" y="1849" width="255.25" height="60" as="geometry" />
        </mxCell>
        <mxCell id="qzgSz0VJFYSZ9HDAb8HW-12" value="Конец" style="strokeWidth=1;html=1;shape=mxgraph.flowchart.terminator;whiteSpace=wrap;" vertex="1" parent="1">
          <mxGeometry x="891.37" y="1960" width="245.5" height="60" as="geometry" />
        </mxCell>
        <mxCell id="qzgSz0VJFYSZ9HDAb8HW-25" value="" style="edgeStyle=orthogonalEdgeStyle;rounded=0;orthogonalLoop=1;jettySize=auto;html=1;" edge="1" parent="1" source="qzgSz0VJFYSZ9HDAb8HW-14" target="qzgSz0VJFYSZ9HDAb8HW-15">
          <mxGeometry relative="1" as="geometry" />
        </mxCell>
        <mxCell id="qzgSz0VJFYSZ9HDAb8HW-14" value="print_table" style="strokeWidth=1;html=1;shape=mxgraph.flowchart.terminator;whiteSpace=wrap;" vertex="1" parent="1">
          <mxGeometry x="407.25" y="2087" width="245.5" height="60" as="geometry" />
        </mxCell>
        <mxCell id="qzgSz0VJFYSZ9HDAb8HW-26" value="" style="edgeStyle=orthogonalEdgeStyle;rounded=0;orthogonalLoop=1;jettySize=auto;html=1;" edge="1" parent="1" source="qzgSz0VJFYSZ9HDAb8HW-15" target="qzgSz0VJFYSZ9HDAb8HW-16">
          <mxGeometry relative="1" as="geometry" />
        </mxCell>
        <mxCell id="qzgSz0VJFYSZ9HDAb8HW-15" value="for (double i = bottom_limit; i&amp;nbsp; &amp;lt;= top_limit + DBL_EPSILON; i += delta)" style="shape=hexagon;perimeter=hexagonPerimeter2;whiteSpace=wrap;html=1;fixedSize=1;" vertex="1" parent="1">
          <mxGeometry x="397.38" y="2200" width="265.25" height="80" as="geometry" />
        </mxCell>
        <mxCell id="qzgSz0VJFYSZ9HDAb8HW-23" style="edgeStyle=orthogonalEdgeStyle;rounded=0;orthogonalLoop=1;jettySize=auto;html=1;entryX=0.5;entryY=0;entryDx=0;entryDy=0;" edge="1" parent="1" source="qzgSz0VJFYSZ9HDAb8HW-16" target="qzgSz0VJFYSZ9HDAb8HW-19">
          <mxGeometry relative="1" as="geometry">
            <Array as="points">
              <mxPoint x="733" y="2395" />
            </Array>
          </mxGeometry>
        </mxCell>
        <mxCell id="qzgSz0VJFYSZ9HDAb8HW-27" value="Yes" style="edgeLabel;html=1;align=center;verticalAlign=middle;resizable=0;points=[];" vertex="1" connectable="0" parent="qzgSz0VJFYSZ9HDAb8HW-23">
          <mxGeometry x="-0.6173" y="-1" relative="1" as="geometry">
            <mxPoint as="offset" />
          </mxGeometry>
        </mxCell>
        <mxCell id="qzgSz0VJFYSZ9HDAb8HW-24" style="edgeStyle=orthogonalEdgeStyle;rounded=0;orthogonalLoop=1;jettySize=auto;html=1;entryX=0.5;entryY=0;entryDx=0;entryDy=0;" edge="1" parent="1" source="qzgSz0VJFYSZ9HDAb8HW-16" target="qzgSz0VJFYSZ9HDAb8HW-20">
          <mxGeometry relative="1" as="geometry">
            <mxPoint x="318.7619047619046" y="2467.4285714285716" as="targetPoint" />
            <Array as="points">
              <mxPoint x="341" y="2395" />
            </Array>
          </mxGeometry>
        </mxCell>
        <mxCell id="qzgSz0VJFYSZ9HDAb8HW-28" value="No" style="edgeLabel;html=1;align=center;verticalAlign=middle;resizable=0;points=[];" vertex="1" connectable="0" parent="qzgSz0VJFYSZ9HDAb8HW-24">
          <mxGeometry x="-0.4997" y="3" relative="1" as="geometry">
            <mxPoint as="offset" />
          </mxGeometry>
        </mxCell>
        <mxCell id="qzgSz0VJFYSZ9HDAb8HW-16" value="if (i &amp;lt;= DBL_EPSILON)" style="rhombus;whiteSpace=wrap;html=1;" vertex="1" parent="1">
          <mxGeometry x="409.5" y="2333" width="241" height="124" as="geometry" />
        </mxCell>
        <mxCell id="qzgSz0VJFYSZ9HDAb8HW-19" value="printf(&quot;Нет значения в точке %.2f\n&quot;, i);" style="shape=process;whiteSpace=wrap;html=1;backgroundOutline=1;" vertex="1" parent="1">
          <mxGeometry x="605" y="2476" width="255.25" height="60" as="geometry" />
        </mxCell>
        <mxCell id="qzgSz0VJFYSZ9HDAb8HW-30" value="" style="edgeStyle=orthogonalEdgeStyle;rounded=0;orthogonalLoop=1;jettySize=auto;html=1;" edge="1" parent="1" source="qzgSz0VJFYSZ9HDAb8HW-20" target="qzgSz0VJFYSZ9HDAb8HW-29">
          <mxGeometry relative="1" as="geometry" />
        </mxCell>
        <mxCell id="qzgSz0VJFYSZ9HDAb8HW-20" value="&amp;nbsp; const double y = get_y(i);" style="shape=process;whiteSpace=wrap;html=1;backgroundOutline=1;" vertex="1" parent="1">
          <mxGeometry x="213" y="2476" width="255.25" height="60" as="geometry" />
        </mxCell>
        <mxCell id="qzgSz0VJFYSZ9HDAb8HW-29" value="printf(&quot;%.2f: %.2f\n&quot;, i, y);" style="shape=process;whiteSpace=wrap;html=1;backgroundOutline=1;" vertex="1" parent="1">
          <mxGeometry x="213" y="2574" width="255.25" height="60" as="geometry" />
        </mxCell>
        <mxCell id="qzgSz0VJFYSZ9HDAb8HW-33" value="" style="edgeStyle=orthogonalEdgeStyle;rounded=0;orthogonalLoop=1;jettySize=auto;html=1;" edge="1" parent="1" source="qzgSz0VJFYSZ9HDAb8HW-31" target="qzgSz0VJFYSZ9HDAb8HW-32">
          <mxGeometry relative="1" as="geometry" />
        </mxCell>
        <mxCell id="qzgSz0VJFYSZ9HDAb8HW-31" value="get_y" style="strokeWidth=1;html=1;shape=mxgraph.flowchart.terminator;whiteSpace=wrap;" vertex="1" parent="1">
          <mxGeometry x="-576" y="2340" width="245.5" height="60" as="geometry" />
        </mxCell>
        <mxCell id="qzgSz0VJFYSZ9HDAb8HW-32" value="return 0.1 * pow(x, 2) - x * log10(x);" style="strokeWidth=1;html=1;shape=mxgraph.flowchart.terminator;whiteSpace=wrap;" vertex="1" parent="1">
          <mxGeometry x="-576" y="2446" width="245.5" height="60" as="geometry" />
        </mxCell>
        <mxCell id="qzgSz0VJFYSZ9HDAb8HW-34" style="edgeStyle=orthogonalEdgeStyle;rounded=0;orthogonalLoop=1;jettySize=auto;html=1;entryX=1;entryY=0.5;entryDx=0;entryDy=0;exitX=1;exitY=0.5;exitDx=0;exitDy=0;entryPerimeter=0;" edge="1" parent="1" source="qzgSz0VJFYSZ9HDAb8HW-38" target="qzgSz0VJFYSZ9HDAb8HW-42">
          <mxGeometry relative="1" as="geometry">
            <mxPoint x="-588.05" y="2784" as="sourcePoint" />
            <mxPoint x="-518.05" y="2964" as="targetPoint" />
            <Array as="points">
              <mxPoint x="-495.55" y="2778" />
              <mxPoint x="-495.55" y="2872" />
            </Array>
          </mxGeometry>
        </mxCell>
        <mxCell id="qzgSz0VJFYSZ9HDAb8HW-35" value="no" style="edgeLabel;html=1;align=center;verticalAlign=middle;resizable=0;points=[];" vertex="1" connectable="0" parent="qzgSz0VJFYSZ9HDAb8HW-34">
          <mxGeometry x="-0.6381" relative="1" as="geometry">
            <mxPoint as="offset" />
          </mxGeometry>
        </mxCell>
        <mxCell id="qzgSz0VJFYSZ9HDAb8HW-36" style="edgeStyle=orthogonalEdgeStyle;rounded=0;orthogonalLoop=1;jettySize=auto;html=1;entryX=0;entryY=0.5;entryDx=0;entryDy=0;exitX=0;exitY=0.5;exitDx=0;exitDy=0;entryPerimeter=0;" edge="1" parent="1" source="qzgSz0VJFYSZ9HDAb8HW-38" target="qzgSz0VJFYSZ9HDAb8HW-41">
          <mxGeometry relative="1" as="geometry">
            <mxPoint x="-868.05" y="2784" as="sourcePoint" />
            <mxPoint x="-943.05" y="2964" as="targetPoint" />
            <Array as="points">
              <mxPoint x="-974.55" y="2778" />
              <mxPoint x="-974.55" y="2872" />
            </Array>
          </mxGeometry>
        </mxCell>
        <mxCell id="qzgSz0VJFYSZ9HDAb8HW-37" value="yes" style="edgeLabel;html=1;align=center;verticalAlign=middle;resizable=0;points=[];" vertex="1" connectable="0" parent="qzgSz0VJFYSZ9HDAb8HW-36">
          <mxGeometry x="-0.5173" y="-4" relative="1" as="geometry">
            <mxPoint as="offset" />
          </mxGeometry>
        </mxCell>
        <mxCell id="qzgSz0VJFYSZ9HDAb8HW-38" value="if (scanf_s(&quot;%lf&quot;, &amp;amp;value) != 1)" style="rhombus;whiteSpace=wrap;html=1;" vertex="1" parent="1">
          <mxGeometry x="-871.55" y="2703" width="290" height="150" as="geometry" />
        </mxCell>
        <mxCell id="qzgSz0VJFYSZ9HDAb8HW-39" value="" style="edgeStyle=orthogonalEdgeStyle;rounded=0;orthogonalLoop=1;jettySize=auto;html=1;" edge="1" parent="1" source="qzgSz0VJFYSZ9HDAb8HW-40" target="qzgSz0VJFYSZ9HDAb8HW-44">
          <mxGeometry relative="1" as="geometry" />
        </mxCell>
        <mxCell id="qzgSz0VJFYSZ9HDAb8HW-40" value="&lt;div style=&quot;background-color: rgb(255, 255, 255);&quot;&gt;&lt;pre style=&quot;&quot;&gt;&lt;font style=&quot;&quot;&gt;&lt;font face=&quot;Helvetica&quot;&gt;&lt;span style=&quot;white-space: normal;&quot;&gt;double_input&lt;/span&gt;&lt;/font&gt;&lt;font face=&quot;JetBrains Mono, monospace&quot; color=&quot;#202020&quot;&gt;&lt;br&gt;&lt;/font&gt;&lt;/font&gt;&lt;/pre&gt;&lt;/div&gt;" style="strokeWidth=1;html=1;shape=mxgraph.flowchart.terminator;whiteSpace=wrap;" vertex="1" parent="1">
          <mxGeometry x="-872.05" y="2531" width="291" height="60" as="geometry" />
        </mxCell>
        <mxCell id="qzgSz0VJFYSZ9HDAb8HW-41" value="&lt;font style=&quot;font-size: 12px;&quot;&gt;abort();&lt;/font&gt;" style="strokeWidth=1;html=1;shape=mxgraph.flowchart.terminator;whiteSpace=wrap;" vertex="1" parent="1">
          <mxGeometry x="-953.55" y="2842" width="199" height="60" as="geometry" />
        </mxCell>
        <mxCell id="qzgSz0VJFYSZ9HDAb8HW-42" value="&lt;font style=&quot;font-size: 12px;&quot;&gt;return value;&lt;/font&gt;" style="strokeWidth=1;html=1;shape=mxgraph.flowchart.terminator;whiteSpace=wrap;" vertex="1" parent="1">
          <mxGeometry x="-702.55" y="2842" width="189" height="60" as="geometry" />
        </mxCell>
        <mxCell id="qzgSz0VJFYSZ9HDAb8HW-43" value="" style="edgeStyle=orthogonalEdgeStyle;rounded=0;orthogonalLoop=1;jettySize=auto;html=1;" edge="1" parent="1" source="qzgSz0VJFYSZ9HDAb8HW-44" target="qzgSz0VJFYSZ9HDAb8HW-38">
          <mxGeometry relative="1" as="geometry" />
        </mxCell>
        <mxCell id="qzgSz0VJFYSZ9HDAb8HW-44" value="double value = 0;" style="rounded=0;whiteSpace=wrap;html=1;" vertex="1" parent="1">
          <mxGeometry x="-873.55" y="2617" width="294" height="60" as="geometry" />
        </mxCell>
        <mxCell id="qzgSz0VJFYSZ9HDAb8HW-45" style="edgeStyle=orthogonalEdgeStyle;rounded=0;orthogonalLoop=1;jettySize=auto;html=1;entryX=1;entryY=0.5;entryDx=0;entryDy=0;exitX=1;exitY=0.5;exitDx=0;exitDy=0;entryPerimeter=0;" edge="1" parent="1" source="qzgSz0VJFYSZ9HDAb8HW-49" target="qzgSz0VJFYSZ9HDAb8HW-53">
          <mxGeometry relative="1" as="geometry">
            <mxPoint x="-52.5" y="2789" as="sourcePoint" />
            <mxPoint x="17.500000000000004" y="2969" as="targetPoint" />
            <Array as="points">
              <mxPoint x="40" y="2783" />
              <mxPoint x="40" y="2877" />
            </Array>
          </mxGeometry>
        </mxCell>
        <mxCell id="qzgSz0VJFYSZ9HDAb8HW-46" value="no" style="edgeLabel;html=1;align=center;verticalAlign=middle;resizable=0;points=[];" vertex="1" connectable="0" parent="qzgSz0VJFYSZ9HDAb8HW-45">
          <mxGeometry x="-0.6381" relative="1" as="geometry">
            <mxPoint as="offset" />
          </mxGeometry>
        </mxCell>
        <mxCell id="qzgSz0VJFYSZ9HDAb8HW-47" style="edgeStyle=orthogonalEdgeStyle;rounded=0;orthogonalLoop=1;jettySize=auto;html=1;entryX=0;entryY=0.5;entryDx=0;entryDy=0;exitX=0;exitY=0.5;exitDx=0;exitDy=0;entryPerimeter=0;" edge="1" parent="1" source="qzgSz0VJFYSZ9HDAb8HW-49" target="qzgSz0VJFYSZ9HDAb8HW-52">
          <mxGeometry relative="1" as="geometry">
            <mxPoint x="-332.5" y="2789" as="sourcePoint" />
            <mxPoint x="-407.5" y="2969" as="targetPoint" />
            <Array as="points">
              <mxPoint x="-439" y="2783" />
              <mxPoint x="-439" y="2877" />
            </Array>
          </mxGeometry>
        </mxCell>
        <mxCell id="qzgSz0VJFYSZ9HDAb8HW-48" value="yes" style="edgeLabel;html=1;align=center;verticalAlign=middle;resizable=0;points=[];" vertex="1" connectable="0" parent="qzgSz0VJFYSZ9HDAb8HW-47">
          <mxGeometry x="-0.5173" y="-4" relative="1" as="geometry">
            <mxPoint as="offset" />
          </mxGeometry>
        </mxCell>
        <mxCell id="qzgSz0VJFYSZ9HDAb8HW-49" value="if (value &amp;lt; DBL_EPSILON)" style="rhombus;whiteSpace=wrap;html=1;" vertex="1" parent="1">
          <mxGeometry x="-336" y="2708" width="290" height="150" as="geometry" />
        </mxCell>
        <mxCell id="qzgSz0VJFYSZ9HDAb8HW-57" value="" style="edgeStyle=orthogonalEdgeStyle;rounded=0;orthogonalLoop=1;jettySize=auto;html=1;" edge="1" parent="1" source="qzgSz0VJFYSZ9HDAb8HW-51" target="qzgSz0VJFYSZ9HDAb8HW-56">
          <mxGeometry relative="1" as="geometry" />
        </mxCell>
        <mxCell id="qzgSz0VJFYSZ9HDAb8HW-51" value="&lt;div style=&quot;background-color: rgb(255, 255, 255);&quot;&gt;&lt;pre style=&quot;&quot;&gt;&lt;font style=&quot;&quot;&gt;&lt;font face=&quot;Helvetica&quot;&gt;&lt;span style=&quot;white-space: normal;&quot;&gt;get_positive_double&lt;/span&gt;&lt;/font&gt;&lt;font face=&quot;JetBrains Mono, monospace&quot; color=&quot;#202020&quot;&gt;&lt;br&gt;&lt;/font&gt;&lt;/font&gt;&lt;/pre&gt;&lt;/div&gt;" style="strokeWidth=1;html=1;shape=mxgraph.flowchart.terminator;whiteSpace=wrap;" vertex="1" parent="1">
          <mxGeometry x="-336.5" y="2536" width="291" height="60" as="geometry" />
        </mxCell>
        <mxCell id="qzgSz0VJFYSZ9HDAb8HW-52" value="&lt;font style=&quot;font-size: 12px;&quot;&gt;abort();&lt;/font&gt;" style="strokeWidth=1;html=1;shape=mxgraph.flowchart.terminator;whiteSpace=wrap;" vertex="1" parent="1">
          <mxGeometry x="-418" y="2847" width="199" height="60" as="geometry" />
        </mxCell>
        <mxCell id="qzgSz0VJFYSZ9HDAb8HW-53" value="&lt;font style=&quot;font-size: 12px;&quot;&gt;return value;&lt;/font&gt;" style="strokeWidth=1;html=1;shape=mxgraph.flowchart.terminator;whiteSpace=wrap;" vertex="1" parent="1">
          <mxGeometry x="-167" y="2847" width="189" height="60" as="geometry" />
        </mxCell>
        <mxCell id="qzgSz0VJFYSZ9HDAb8HW-58" value="" style="edgeStyle=orthogonalEdgeStyle;rounded=0;orthogonalLoop=1;jettySize=auto;html=1;" edge="1" parent="1" source="qzgSz0VJFYSZ9HDAb8HW-56" target="qzgSz0VJFYSZ9HDAb8HW-49">
          <mxGeometry relative="1" as="geometry" />
        </mxCell>
        <mxCell id="qzgSz0VJFYSZ9HDAb8HW-56" value="const double value = double_input();" style="shape=process;whiteSpace=wrap;html=1;backgroundOutline=1;" vertex="1" parent="1">
          <mxGeometry x="-336" y="2622" width="291" height="60" as="geometry" />
        </mxCell>
      </root>
    </mxGraphModel>
  </diagram>
</mxfile>
